<svg width="25" height="21" viewBox="0 0 25 21" fill="none" xmlns="http://www.w3.org/2000/svg">
<path fill-rule="evenodd" clip-rule="evenodd" d="M7.17037 1.80352C7.41009 1.80352 7.60353 1.99844 7.60353 2.23779C7.60353 2.47751 7.41009 2.67281 7.17037 2.67281C6.93102 2.67281 6.73758 2.47788 6.73758 2.23779C6.73758 1.99844 6.93102 1.80352 7.17037 1.80352ZM8.67217 0.132501C8.0091 0.126392 7.32732 0.278368 6.76032 0.602132C6.29069 0.871101 5.86662 1.25003 5.67611 1.77538C5.58078 2.03509 5.47953 2.19022 5.29553 2.31755C5.14484 2.42214 4.92993 2.51099 4.70852 2.60041C4.29832 2.7646 3.89329 2.90584 3.55859 3.15334C3.12839 3.47154 3.01158 4.01927 3.07954 4.4769C3.14877 4.93487 3.43421 5.35563 3.89329 5.45226L6.62108 6.03571C7.32911 6.18639 7.85134 6.96182 7.77248 7.52864C7.52832 9.32107 8.0322 10.6046 8.52497 11.7366C8.81245 12.3939 9.06548 13.0022 9.20879 13.6334C9.30875 14.0742 9.2869 14.9017 9.1949 15.3409L8.31471 18.9869C8.2949 19.065 8.23474 19.1263 8.15662 19.1481C7.70365 19.2694 7.38731 19.4828 7.17388 19.7807C6.96192 20.0787 6.84826 20.4704 6.84826 20.9633H9.36673C9.75824 20.9633 10.0378 20.7732 10.2267 20.5302C10.4154 20.286 10.5355 19.9944 10.6718 19.7379L11.6699 16.8966C11.6347 16.6297 11.6347 16.3624 11.676 16.1028C11.8694 14.9018 12.9247 13.9867 14.6785 13.9867C14.9395 13.9867 14.9395 14.2801 14.6785 14.2801C13.0687 14.2801 12.2261 15.1445 12.0615 16.166C11.8973 17.1874 12.3871 18.376 13.7155 19.0395C13.9487 19.1543 13.8214 19.5184 13.5861 19.4016C13.1594 19.1881 12.8029 18.9195 12.5159 18.6152C11.5821 18.8856 10.8483 19.7749 10.8483 20.7945C10.8483 20.8885 10.9234 20.9635 11.0154 20.9635H17.8986C18.4745 20.9635 18.9893 20.7821 19.4069 20.4952C20.3316 20.8576 21.425 20.7025 22.3695 20.269C23.3369 19.8255 24.1588 19.1081 24.4674 18.3203C24.713 17.6955 24.4122 17.1423 23.9806 16.8968C23.7638 16.7741 23.5135 16.7187 23.2725 16.7574C23.0332 16.7972 22.8042 16.9418 22.6642 17.1887C22.0576 18.267 21.4066 18.6985 20.6541 18.8305C21.0749 17.0723 21.1687 14.7917 19.8555 13.2282L14.3134 6.62745C14.0966 6.36941 13.8619 6.14248 13.5704 5.97159C13.4456 6.173 13.286 6.3446 13.108 6.48472C12.7485 6.76424 12.3168 6.9164 11.9177 6.88104C11.5188 6.84569 11.1499 6.58153 11.033 6.11913L10.2225 2.87708C10.1532 2.60367 10.4053 2.62551 10.4587 2.80785L11.4092 6.02398C11.4907 6.34811 11.6813 6.46954 11.9514 6.49231C12.2235 6.51712 12.5797 6.40975 12.8666 6.17762C13.157 5.94401 13.3103 5.70725 13.3782 5.39718C13.4858 4.90424 13.3107 4.31444 12.856 3.71265L11.7827 2.29227C11.3985 1.78247 11.1222 1.10068 10.5938 0.707359C10.0778 0.32325 9.38204 0.138695 8.6723 0.132771L8.67217 0.132501Z" fill="#fec700"/>
<path fill-rule="evenodd" clip-rule="evenodd" d="M2.6604 9.40378C2.8892 9.40378 3.07653 9.59093 3.07653 9.82269C3.07653 10.053 2.88939 10.2405 2.6604 10.2405C2.43012 10.2405 2.24409 10.053 2.24409 9.82269C2.2439 9.59111 2.43012 9.40378 2.6604 9.40378ZM3.89028 6.61657C3.76607 6.7393 3.74015 6.88221 3.77496 7.11543L3.6924 6.98067C3.61224 6.85182 3.45564 6.78112 3.31736 6.8037C3.17945 6.82702 3.06875 6.91606 2.98268 7.03249C2.82903 7.23853 2.79368 7.58244 2.8568 7.9525C2.33164 8.13206 1.83074 8.48079 1.62654 8.98931C1.51307 9.27217 1.31315 9.5711 1.05362 9.72493C0.87517 9.831 0.717266 9.93836 0.626564 10.1198C0.535672 10.2993 0.535673 10.522 0.606572 10.8095C0.70468 11.1905 0.764655 11.4759 0.959579 11.7032C1.1545 11.932 1.45882 12.0534 1.96716 12.1503C2.29129 12.2115 2.48289 12.3209 2.57079 12.4331C2.65835 12.5451 2.67372 12.671 2.60763 12.8602C1.85775 14.7646 2.00248 15.5662 2.18058 16.2712C2.35866 16.9715 2.5521 17.5796 1.96714 19.3165C1.31612 19.4592 0.876447 20.058 0.876447 20.7981C0.876447 20.8905 0.951975 20.9657 1.04398 20.9657H3.45506C3.45839 20.2424 3.91414 19.6268 4.54112 19.4607C3.89601 18.8356 3.62851 18.0155 3.74996 17.2708C3.91415 16.2633 4.80787 15.4736 6.29175 15.4736C6.47723 15.4736 6.50055 15.7472 6.29175 15.7472C4.93098 15.7472 4.21977 16.4687 4.08021 17.3226C3.94193 18.1766 4.39361 19.1841 5.51761 19.7402C5.73104 19.8337 5.57444 20.1519 5.36878 20.0395C5.18589 19.949 5.01873 19.8446 4.86508 19.7326L4.79585 19.7495C4.24292 19.7954 3.79311 20.3118 3.79012 20.9658L6.4037 20.9644C6.4037 20.402 6.53254 19.9109 6.81058 19.5221C7.05622 19.1799 7.45108 18.9663 7.8981 18.8124L8.75797 15.2449C8.88532 14.6705 8.82553 14.1622 8.73205 13.6554C8.64912 13.2178 8.44624 13.0536 8.1132 12.8553C7.60487 12.5543 7.0425 12.3042 6.45275 12.0736C6.15472 11.9568 5.99978 11.7313 5.92906 11.4237C5.85687 11.1149 5.88445 10.7345 6.05975 9.99569C6.23468 9.25525 5.64491 7.59811 4.52554 6.59537C4.29267 6.38582 4.04516 6.46431 3.89025 6.61647L3.89028 6.61657Z" fill="#fec700"/>
</svg>
